<?xml version="1.0" standalone="yes"?>
<svg width="500" height="500">
<path style="fill:#ffffff; stroke:none;" d="M0 0L0 500L500 500L500 0L0 0z"/>
<path style="fill:#000000; stroke:none;" d="M124 87L124 137L148 137L148 87L124 87M198 100L198 104L195 104L195 108L192 108L192 113L189 113L189 117L186 117L186 121L183 121L183 125L180 125L180 147L91 147L85 121L82 121L82 117L57 117L57 143L60 143L67 164L57 164L57 147L32 147L31.9452 305L20.0008 342L32 396L272 396C272 387.29 268.314 367.764 273.028 360.39C275.674 356.251 281.665 356.023 286 356.001C297.333 355.942 308.667 356 320 356L320.529 305L335 268L336 268L336 342L368 342L368 310L448 310L448 234C448 221.677 446.452 208.197 448.21 196C450.093 182.94 467.169 164.576 455.772 152.105C448.286 143.913 433.038 147 423 147L336 147L335.39 183L321 221L320 221L320 147L205 149L208 147L208 143L211 143L211 139L214 139L214 134L217 134L217 130L220 130L222 100L198 100z"/>
</svg>
